# xmcd CD database file
#
# Track frame offsets:
#	150
#	22086
#	54345
#	88704
#	113405
#	147599
#	164155
#	195776
#	220139
#	243232
#
# Disc length: 3509 seconds
#
# Revision: 0
# Processed by: cddbd v1.5.2PL0 Copyright (c) Steve Scherf et al.
# Submitted via: CDex 1.51
#
DISCID=850db30a
DTITLE=Tribal Tech - X
DYEAR=2012
DGENRE=Jazz
TTITLE0=Tribal Tech - Mech X
TTITLE1=Tribal Tech - Got Faith 'N Phat
TTITLE2=Tribal Tech - Time Lapse
TTITLE3=Tribal Tech - Anthem
TTITLE4=Tribal Tech - Palm Moon Plaza
TTITLE5=Tribal Tech - Gravity
TTITLE6=Tribal Tech - Working Blue
TTITLE7=Tribal Tech - Ask Me A Question
TTITLE8=Tribal Tech - Let's Get Swung
TTITLE9=Tribal Tech - Corn Butter
EXTD=YEAR: 2012
EXTT0=
EXTT1=
EXTT2=
EXTT3=
EXTT4=
EXTT5=
EXTT6=
EXTT7=
EXTT8=
EXTT9=
PLAYORDER=
